<?xml version="1.0" encoding="utf-8"?>
<!-- Generator: Adobe Illustrator 18.0.0, SVG Export Plug-In . SVG Version: 6.00 Build 0)  -->
<!DOCTYPE svg PUBLIC "-//W3C//DTD SVG 1.1//EN" "http://www.w3.org/Graphics/SVG/1.1/DTD/svg11.dtd">
<svg xmlns="http://www.w3.org/2000/svg" xmlns:xlink="http://www.w3.org/1999/xlink" version="1.1" id="Layer_2" x="0px" y="0px" viewBox="0 0 30 30" enable-background="new 0 0 30 30" xml:space="preserve">
<g>
	<g>
		<path d="M14.2,5.4c-0.1,1.1-0.4,2.5-1.3,3.1c-5.1,0.5-9,2.8-9.2,7.9c0,0.9,3.2,2.1,11.3,2.1s11.3-1.2,11.3-2.1    c-0.2-5-4-7.4-9.2-7.9c-0.9-0.7-1.3-2-1.3-3.1H14.2z"/>
		<path d="M26.8,18.4c-1.4,0.9-4.6,1.8-11.8,1.8S4.6,19.3,3.2,18.4c-0.9,3.4-2.7,4-3.2,4.7v1.2c0.8,1.1,3.5,2.5,15,2.5    s14.2-1.3,15-2.5v-1.2C29.5,22.4,27.7,21.8,26.8,18.4z"/>
	</g>
	<ellipse cx="15" cy="4.4" rx="3" ry="1.2"/>
</g>
</svg>