<?xml version="1.0" encoding="utf-8"?>
<!-- Generator: Adobe Illustrator 17.1.0, SVG Export Plug-In . SVG Version: 6.00 Build 0)  -->
<!DOCTYPE svg PUBLIC "-//W3C//DTD SVG 1.1//EN" "http://www.w3.org/Graphics/SVG/1.1/DTD/svg11.dtd">
<svg xmlns="http://www.w3.org/2000/svg" xmlns:xlink="http://www.w3.org/1999/xlink" version="1.1" id="Layer_1" x="0px" y="0px" viewBox="0 0 30 30" enable-background="new 0 0 30 30" xml:space="preserve">
<g>
	<path fill="#010101" d="M8.7,18.6V9.4H3.1c-1.6,0-3,1.3-3,3v8.9c0,1.6,1.3,3,3,3h1.5v4.5L9,24.3h7.4c1.6,0,3-1.3,3-3v-2.7   c-0.1,0-0.2,0-0.3,0H8.7z M26.8,2H13.5c-1.6,0-3,1.3-3,3v11.9h10.4l4.5,4.5v-4.5h1.5c1.6,0,3-1.3,3-3V5C29.8,3.3,28.5,2,26.8,2z"/>
</g>
</svg>
