<?xml version="1.0" encoding="utf-8"?>
<!DOCTYPE svg PUBLIC "-//W3C//DTD SVG 1.1//EN" "http://www.w3.org/Graphics/SVG/1.1/DTD/svg11.dtd">
<svg xmlns="http://www.w3.org/2000/svg" xmlns:xlink="http://www.w3.org/1999/xlink" version="1.1" id="Layer_1" x="0px" y="0px" viewBox="0 0 20 20" enable-background="new 0 0 20 20" xml:space="preserve">
<path d="M11.1,1.1c1.2,0,1.8,0.8,1.8,1.8c0,1.2-1.1,2.3-2.5,2.3c-1.2,0-1.8-0.7-1.8-1.8C8.7,2.4,9.5,1.1,11.1,1.1z M7.3,19.4  c-1,0-1.7-0.6-1-3.2l1.1-4.7c0.2-0.7,0.2-1,0-1c-0.3,0-1.5,0.5-2.3,1l-0.5-0.8c2.4-2,5.1-3.2,6.2-3.2c1,0,1.1,1.2,0.6,3l-1.3,4.9  c-0.2,0.9-0.1,1.2,0.1,1.2c0.3,0,1.2-0.4,2.2-1.1l0.5,0.7C10.8,18.5,8.3,19.4,7.3,19.4z"/>
</svg>