<?xml version="1.0" encoding="utf-8"?>
<!-- Generator: Adobe Illustrator 17.1.0, SVG Export Plug-In . SVG Version: 6.00 Build 0)  -->
<svg xmlns="http://www.w3.org/2000/svg" xmlns:xlink="http://www.w3.org/1999/xlink" version="1.1" id="Layer_1" x="0px" y="0px" viewBox="0 0 30 30" enable-background="new 0 0 30 30" xml:space="preserve">
<g>
	<path fill="#020202" d="M1.2,7.1c0.9,0.4,12,6.4,12.3,6.6c0.4,0.2,0.9,0.2,1.5,0.2c0.6,0,1.1-0.2,1.5-0.4   c0.4-0.2,11.4-6.1,12.1-6.6C29.4,6.5,30.3,5,28.8,5H1.2C-0.3,5.4,0.5,6.7,1.2,7.1z M29,10.4c-0.9,0.6-12,6.4-12.5,6.6   c-0.6,0.4-0.9,0.4-1.5,0.4c-0.6,0-0.9,0-1.5-0.4C13,16.6,2,10.9,0.9,10.4c-0.6-0.4-0.6,0.2-0.6,0.4c0,0.2,0,12,0,12   c0,0.7,0.9,1.7,1.7,1.7h26.1c0.7,0,1.7-0.9,1.7-1.7c0,0,0-11.6,0-12C29.6,10.4,29.7,10,29,10.4z"/>
</g>
</svg>